<?xml version="1.0" encoding="UTF-8" standalone="no"?>
<!-- Created with Inkscape (http://www.inkscape.org/) -->

<svg
   width="210mm"
   height="297mm"
   viewBox="0 0 210 297"
   version="1.1"
   id="svg5"
   inkscape:export-filename="elka.svg"
   inkscape:export-xdpi="8.5521889"
   inkscape:export-ydpi="8.5521889"
   inkscape:version="1.2.2 (732a01da63, 2022-12-09)"
   sodipodi:docname="elka.svg"
   xmlns:inkscape="http://www.inkscape.org/namespaces/inkscape"
   xmlns:sodipodi="http://sodipodi.sourceforge.net/DTD/sodipodi-0.dtd"
   xmlns="http://www.w3.org/2000/svg"
   xmlns:svg="http://www.w3.org/2000/svg">
  <sodipodi:namedview
     id="namedview7"
     pagecolor="#ffffff"
     bordercolor="#999999"
     borderopacity="1"
     inkscape:showpageshadow="0"
     inkscape:pageopacity="0"
     inkscape:pagecheckerboard="0"
     inkscape:deskcolor="#d1d1d1"
     inkscape:document-units="mm"
     showgrid="true"
     inkscape:zoom="2.0510461"
     inkscape:cx="138.22215"
     inkscape:cy="689.1605"
     inkscape:window-width="1920"
     inkscape:window-height="1001"
     inkscape:window-x="-9"
     inkscape:window-y="-9"
     inkscape:window-maximized="1"
     inkscape:current-layer="layer2">
    <inkscape:grid
       type="xygrid"
       id="grid9" />
  </sodipodi:namedview>
  <defs
     id="defs2">
    <inkscape:path-effect
       effect="bspline"
       id="path-effect1061"
       is_visible="true"
       lpeversion="1"
       weight="33.333333"
       steps="2"
       helper_size="0"
       apply_no_weight="true"
       apply_with_weight="true"
       only_selected="false" />
  </defs>
  <g
     inkscape:label="Layer 1"
     inkscape:groupmode="layer"
     id="layer1">
    <path
       sodipodi:type="star"
       style="fill:#00ff00;stroke-width:0.264583"
       id="path581"
       inkscape:flatsided="true"
       sodipodi:sides="3"
       sodipodi:cx="65.128372"
       sodipodi:cy="206.33107"
       sodipodi:r1="24.446627"
       sodipodi:r2="12.223313"
       sodipodi:arg1="-1.5782589"
       sodipodi:arg2="-0.53106132"
       inkscape:rounded="0"
       inkscape:randomized="0"
       d="m 64.945939,181.88512 21.44446,36.51093 -42.34162,0.31598 z"
       inkscape:transform-center-x="-0.091215395"
       inkscape:transform-center-y="-6.0324935"
       inkscape:export-filename="path581.svg"
       inkscape:export-xdpi="8.5521889"
       inkscape:export-ydpi="8.5521889" />
    <path
       sodipodi:type="star"
       style="fill:#00ff00;stroke-width:0.264583"
       id="path581-3"
       inkscape:flatsided="true"
       sodipodi:sides="3"
       sodipodi:cx="65.128372"
       sodipodi:cy="206.33107"
       sodipodi:r1="24.446627"
       sodipodi:r2="12.223313"
       sodipodi:arg1="-1.5782589"
       sodipodi:arg2="-0.53106132"
       inkscape:rounded="0"
       inkscape:randomized="0"
       d="m 64.945939,181.88512 21.44446,36.51093 -42.34162,0.31598 z"
       inkscape:transform-center-x="-0.076764659"
       inkscape:transform-center-y="-5.0182091"
       transform="matrix(0.84157529,0,0,0.83186311,9.8572393,16.299881)" />
    <rect
       style="fill:#6c5353;stroke-width:0.344974"
       id="rect779"
       width="12.899921"
       height="6.5789599"
       x="59.081635"
       y="218.52466"
       ry="0.15506758" />
  </g>
  <g
     inkscape:groupmode="layer"
     id="layer2"
     inkscape:label="toys">
    <path
       id="path3270"
       style="fill:#ffff00;stroke-width:0.264999;stroke-dasharray:none"
       d="M 67.311137 177.94883 L 66.541158 179.02111 L 66.343754 178.46456 L 65.398075 179.78179 L 65.182585 179.17408 L 63.888607 180.97603 L 63.569763 180.07738 L 62.465955 181.61527 L 62.183285 180.81894 L 61.071208 182.3682 L 60.557544 181.65299 L 59.848027 183.65236 L 60.920312 183.8725 L 60.815409 184.1686 L 62.132642 184.43887 L 61.976579 184.87812 L 63.690169 185.22952 L 63.552193 185.61864 L 63.640043 185.63673 L 63.588883 185.78091 L 64.573319 185.98296 L 64.519576 186.13489 L 65.073031 186.24858 L 64.975879 186.52247 L 65.739657 186.67904 L 65.680745 186.84441 L 67.482186 187.2139 L 67.29305 187.7472 L 68.830941 188.06294 L 68.680046 188.48875 L 69.466044 188.64998 L 69.102242 189.15641 L 68.886751 188.5487 L 67.592773 190.35066 L 67.27393 189.452 L 66.170121 190.98989 L 65.887451 190.19356 L 64.756254 191.76917 L 64.542314 191.16508 L 63.771818 192.23788 L 63.574414 191.68132 L 62.629252 192.99804 L 62.413761 192.39084 L 61.119784 194.1928 L 60.80094 193.29363 L 59.696615 194.83152 L 59.414461 194.0357 L 58.304451 195.58134 L 57.83988 194.93384 L 57.130363 196.9332 L 58.203166 197.15334 L 58.098263 197.44945 L 59.414978 197.7192 L 59.258915 198.15896 L 61.060872 198.52845 L 60.871737 199.06175 L 62.409627 199.37749 L 62.258215 199.80382 L 63.774402 200.11492 L 63.543925 200.76501 L 64.616211 200.98515 L 64.511308 201.28125 L 65.828023 201.55101 L 65.67196 201.99077 L 67.473918 202.36026 L 67.284782 202.89356 L 68.822673 203.2093 L 68.671261 203.63563 L 69.726493 203.85216 L 69.117228 204.70068 L 68.901737 204.09297 L 67.608276 205.89441 L 67.289433 204.99576 L 66.185107 206.53416 L 65.902437 205.73783 L 64.709229 207.39923 L 64.451363 206.67266 L 63.681384 207.74546 L 63.48398 207.1889 L 62.538302 208.50614 L 62.322811 207.89842 L 61.02935 209.70038 L 60.710506 208.80121 L 59.606181 210.33962 L 59.323511 209.54328 L 58.183012 211.1313 L 57.888456 210.30086 L 57.118477 211.37314 L 56.921073 210.81711 L 55.975395 212.13382 L 55.759904 211.52662 L 54.466443 213.32806 L 54.147599 212.42941 L 53.043274 213.96782 L 52.760604 213.17097 L 50.954513 215.68658 L 53.470121 215.17085 L 53.318709 214.74451 L 54.857117 214.42877 L 54.667981 213.89547 L 56.469421 213.52598 L 56.313359 213.08674 L 57.630591 212.81647 L 57.525688 212.52036 L 58.597974 212.30022 L 58.444495 211.8682 L 60.033028 211.54264 L 59.881616 211.11631 L 61.419507 210.80109 L 61.230371 210.26779 L 63.032328 209.89778 L 62.876265 209.45853 L 64.192981 209.18826 L 64.088078 208.89268 L 65.160881 208.67253 L 64.950041 208.07774 L 66.611955 207.73719 L 66.460543 207.31086 L 67.99895 206.99512 L 67.809814 206.46182 L 69.611255 206.09233 L 69.455192 205.65308 L 70.772424 205.38281 L 70.667521 205.08671 L 71.739807 204.86708 L 71.03029 202.8672 L 70.647367 203.39999 L 69.380778 201.63575 L 69.098108 202.43209 L 67.994299 200.8942 L 67.675456 201.79337 L 66.381478 199.99141 L 66.165987 200.59861 L 65.220825 199.28189 L 65.023421 199.83845 L 64.252926 198.76565 L 64.056038 199.32013 L 62.967733 197.80395 L 62.685063 198.60028 L 61.581254 197.06239 L 61.26241 197.96156 L 59.968433 196.1596 L 59.752942 196.7668 L 59.342631 196.19526 L 60.123979 196.03506 L 59.972567 195.60873 L 61.510457 195.29299 L 61.321322 194.76021 L 63.123279 194.3902 L 62.967216 193.95095 L 64.283931 193.68068 L 64.179028 193.3851 L 65.251314 193.16495 L 65.021354 192.51641 L 66.596969 192.19292 L 66.445557 191.76711 L 67.983447 191.45136 L 67.794312 190.91806 L 69.596269 190.54858 L 69.440206 190.10881 L 70.756921 189.83906 L 70.652018 189.54295 L 71.724821 189.32281 L 71.015304 187.32345 L 70.50164 188.03865 L 69.389563 186.48939 L 69.106893 187.28573 L 68.002568 185.74784 L 67.683724 186.64597 L 66.390263 184.84453 L 66.233683 185.28636 L 65.685396 184.5231 L 65.626485 184.68899 L 65.229093 184.13501 L 65.031689 184.69157 L 64.261711 183.61928 L 63.916512 184.59183 L 62.686096 182.87824 L 62.470605 183.48596 L 62.106803 182.97953 L 62.892802 182.8183 L 62.74139 182.39197 L 64.279281 182.07674 L 64.090145 181.54344 L 65.892102 181.17395 L 65.736039 180.73419 L 67.052755 180.46444 L 66.947852 180.16833 L 68.020654 179.94819 L 67.311137 177.94883 z " />
    <path
       style="fill:#ff5555;stroke-width:0.264999;stroke-dasharray:none"
       d="m 69.461149,216.04561 0.18243,-2.2348 1.733108,-0.82095 0.912165,0.95777 -0.364866,1.32264 -0.684123,1.00338 v 0 z"
       id="path4014" />
    <path
       style="fill:#ffe680;stroke-width:0.264999;stroke-dasharray:none"
       d="M 70.236487,196.75338 70.875,194.6554 h -2.006758 l -2.280405,1.32264 0.866553,2.2804 1.687502,-0.31925 v 0 z"
       id="path4070" />
    <path
       style="fill:#00ffff;stroke-width:0.264999;stroke-dasharray:none"
       d="m 55.140203,188.54392 -1.869935,1.96114 0.547299,1.18582 1.641893,0.50169 1.368242,-0.91217 0.410472,-1.55067 -0.45608,-1.32264 v 0 z"
       id="path4072" />
    <path
       style="fill:#0000ff;stroke-width:0.264999;stroke-dasharray:none"
       d="m 54.866553,207.69932 0.684122,-2.55405 -2.736487,1.04899 -0.456081,1.96114 z"
       id="path4074" />
    <path
       style="fill:#ac9393;stroke-width:0.264999;stroke-dasharray:none"
       d="m 75.709459,206.23986 -2.006756,-0.63851 -1.00338,0.82094 -0.319256,1.32264 0.638513,1.09459 1.641893,-0.0456 0.957768,-0.91217 z"
       id="path4076" />
    <path
       style="fill:#ff7f2a;stroke-width:0.264999;stroke-dasharray:none"
       d="m 67.910471,182.20439 -0.273648,1.6875 1.413851,0.68412 2.006756,-1.27703 -0.410471,-1.6875 -1.869933,-0.68412 z"
       id="path4078" />
    <path
       style="fill:#ff00ff;stroke-width:0.264999;stroke-dasharray:none"
       d="m 76.849662,193.92567 -0.547298,-2.23479 -2.006756,1.00338 v 1.96114 l 1.231418,0.63852 z"
       id="path4080" />
    <path
       style="fill:#ffaaaa;stroke-width:0.264999;stroke-dasharray:none"
       d="m 61.069256,213.12669 -2.006756,1.41385 1.231419,1.55067 1.869932,0.13683 1.733108,-1.23142 0.182433,-1.50507 -1.140204,-1.23142 -1.505066,-0.22804 z"
       id="path4082" />
    <path
       style="fill:#000080;stroke-width:0.264999;stroke-dasharray:none"
       d="m 79.175675,212.39696 -2.052365,0.45608 0.364866,1.91554 2.326013,0.5929 1.824323,-1.23142 -0.592905,-1.41385 z"
       id="path4084" />
    <path
       style="fill:#ff2a2a;stroke-width:0.264999;stroke-dasharray:none"
       d="m 63.16723,174.54223 -1.824326,0.5929 -0.04561,2.28041 1.505069,0.63851 1.459461,-0.50169 0.547295,-0.95777 -0.228039,-1.32263 z"
       id="path4086" />
    <path
       style="fill:#008000;stroke-width:0.264999;stroke-dasharray:none"
       d="m 61.251689,202.31756 -1.505069,0.72974 -0.866553,2.32601 2.280404,-0.68412 v 0 l 1.277028,-0.77534 0.228041,-1.04899 z"
       id="path4088" />
    <path
       style="fill:#c8beb7;stroke-width:0.264999;stroke-dasharray:none"
       d="m 62.574323,186.90202 -1.641891,0.63852 v 1.82432 l 2.234798,0.68412 1.048986,-0.77533 0.364865,-1.64189 z"
       id="path4090" />
    <path
       sodipodi:type="star"
       style="fill:#ff0000;stroke-width:0.264999;stroke-dasharray:none"
       id="path4144"
       inkscape:flatsided="false"
       sodipodi:sides="5"
       sodipodi:cx="58.888142"
       sodipodi:cy="165.82849"
       sodipodi:r1="4.3864474"
       sodipodi:r2="2.1932237"
       sodipodi:arg1="-0.34500218"
       sodipodi:arg2="0.28331635"
       inkscape:rounded="0"
       inkscape:randomized="0"
       d="m 63.016116,164.345 -2.022186,2.09659 0.58071,2.85441 -2.618864,-1.27533 -2.535262,1.43435 0.40364,-2.88478 -2.147588,-1.96794 2.868327,-0.50757 1.207979,-2.6506 1.369083,2.5711 z"
       inkscape:transform-center-x="0.04891457"
       inkscape:transform-center-y="-0.46434769"
       transform="matrix(1.170152,0,0,1.2254416,-4.5171871,-36.202731)" />
  </g>
</svg>
